<svg xmlns="http://www.w3.org/2000/svg" viewBox="0 0 607.19 220.34"><defs><style>.cls-1{fill:#908270;}.cls-2{fill:#494136;}.cls-3{fill:#f0b100;}</style></defs><title>Asset 1</title><g id="Layer_2" data-name="Layer 2"><g id="Layer_1-2" data-name="Layer 1"><path class="cls-1" d="M328.37,94.83a43.71,43.71,0,1,0,32.46,72.89v7.54a5.62,5.62,0,1,0,11.24,0V138.54A43.77,43.77,0,0,0,328.37,94.83Zm0,76.18a32.5,32.5,0,1,1,22.94-9.52A32.4,32.4,0,0,1,328.37,171Z"/><path class="cls-2" d="M485.44,96.5a5.63,5.63,0,0,0-5.63,5.62v73.14a5.62,5.62,0,1,0,11.24,0V102.12A5.62,5.62,0,0,0,485.44,96.5Zm50.11-.09h-.1l-14.89.13V91.1c0-11.76,2.41-19.82,7.53-24.94s13.19-7.53,24.95-7.53a5.62,5.62,0,1,0,0-11.23c-14.53,0-25.51,3.53-32.84,10.86S509.32,76.57,509.33,91.1v5.54l-4.66,0a5.55,5.55,0,0,0-5.5,5.55.22.22,0,0,0,0,.1,5.54,5.54,0,0,0,5.53,5.44s0,0,0,0h0l4.61,0v67.52a5.62,5.62,0,1,0,11.23,0V107.64l15-.13a5.54,5.54,0,0,0,5.51-5.46h0v-.13A5.56,5.56,0,0,0,535.55,96.41Zm66,73.24c-19.87-.07-32.41-12.58-32.48-32.41V107.65h14.27a5.55,5.55,0,0,0,0-11.1H569.09V70.34a5.62,5.62,0,0,0-11.23,0V96.55h-1.4a5.55,5.55,0,0,0,0,11.1h1.4v29.59c0,13,4.38,23.92,12.07,31.59s18.64,12,31.64,12a5.62,5.62,0,1,0,0-11.23ZM423.92,94.83a43.71,43.71,0,1,0,32.47,72.89v8.91a32.52,32.52,0,0,1-32.47,32.47,5.62,5.62,0,0,0,0,11.24,43.76,43.76,0,0,0,43.7-43.71V138.54A43.75,43.75,0,0,0,423.92,94.83Zm22.94,66.66a32.42,32.42,0,1,1,9.52-23A32.35,32.35,0,0,1,446.86,161.49Z"/><path class="cls-2" d="M43.71,94.83a43.6,43.6,0,0,0-32.48,14.53V69.72A5.62,5.62,0,1,0,0,69.72v68.82A43.71,43.71,0,1,0,43.71,94.83Zm22.95,66.66a32.44,32.44,0,1,1,9.52-23A32.37,32.37,0,0,1,66.66,161.49Zm109.19-65a5.62,5.62,0,0,0-5.62,5.62v36.42c0,22.55-16.2,32.4-32.47,32.47-19.88-.07-32.41-12.6-32.48-32.47V102.12a5.62,5.62,0,1,0-11.23,0v36.42c0,13,4.38,24,12.07,31.64s18.64,12.07,31.64,12.06h0c12.8,0,23.75-4.48,31.48-12.21s12.22-18.69,12.21-31.49V102.12A5.62,5.62,0,0,0,175.85,96.5Zm95.55,0a5.62,5.62,0,0,0-5.62,5.62v36.42c-.07,19.87-12.6,32.4-32.47,32.47-7.92,0-16.05-2.16-22.17-7.25s-10.29-13.12-10.31-25.22V102.12a5.62,5.62,0,1,0-11.23,0v36.42c0,13.18,4.27,24.15,11.92,31.79s18.6,11.92,31.79,11.91c13.48,0,24.76-4.72,32.47-13v7.34c0,12.1-4.2,20.12-10.31,25.22s-14.25,7.26-22.16,7.25a5.62,5.62,0,0,0,0,11.24h0c13.19,0,24.15-4.28,31.79-11.92S277,189.82,277,176.63V102.12A5.63,5.63,0,0,0,271.4,96.5Z"/><path class="cls-3" d="M477.66,63.4c19.59-14.68,26.9-30.93,26.91-42.68a27.93,27.93,0,0,0-.22-3.49C503.28,9.06,498.31,3,490.85,1a25,25,0,0,0-6.69-1,19.22,19.22,0,0,0-11,3.37c-10,6.86-12.11,20.71-12.58,24.82-.25,2.28-.34,5.86-.34,10.22,0,3.22.05,6.85.14,10.66-6.53-5.27-12.39-9.8-15.68-11.8A37.08,37.08,0,0,0,426.2,32a25.17,25.17,0,0,0-9,1.55c-6.16,2.31-10.58,7.23-12.69,14a21.4,21.4,0,0,0-1,6.33,18.56,18.56,0,0,0,6.18,13.86c5.09,4.7,13.75,8,25.74,8a90.78,90.78,0,0,0,25.68-4.14c.39,9.16.76,16.26.8,17a4.45,4.45,0,0,0,4.45,4.21h.22a4.44,4.44,0,0,0,4.22-4.43v-.19c0-.25-.47-8.85-.91-19.51l.06,0,.08,0c8.12,6.84,14.61,12.45,14.77,12.59a4.34,4.34,0,0,0,2.9,1.08,4.45,4.45,0,0,0,2.91-7.81C490.09,74,484.67,69.32,477.66,63.4ZM412.43,54a12.34,12.34,0,0,1,.61-3.71c1.35-4.28,3.77-7,7.33-8.35a16.62,16.62,0,0,1,5.86-1,28.19,28.19,0,0,1,13.85,4c3.73,2.26,12.16,9,20.65,16,0,.52,0,1,0,1.57-10,3.18-18.49,4.46-25.42,4.46-9.61,0-16.2-2.48-19.59-5.63h0A9.69,9.69,0,0,1,412.43,54Zm76-44.41c3.95,1.11,6.39,4.11,7.06,8.87a19.1,19.1,0,0,1,.15,2.43c0,9.9-7.57,24.09-25.06,36.66-.37-.32-.76-.64-1.14-1-.21-6.55-.36-13-.36-18.25,0-4,.09-7.24.3-9.15.65-6.26,3.5-14.93,8.74-18.42a10.34,10.34,0,0,1,6-1.83A15.93,15.93,0,0,1,488.47,9.54Z"/></g></g></svg>